<?xml version="1.0" encoding="utf-8"?>
<!-- Generator: Adobe Illustrator 19.0.0, SVG Export Plug-In . SVG Version: 6.00 Build 0)  -->
<svg version="1.1" id="Layer_1" xmlns="http://www.w3.org/2000/svg" xmlns:xlink="http://www.w3.org/1999/xlink" x="0px" y="0px"
	 viewBox="-190.5 31 500 500" style="enable-background:new -190.5 31 500 500;" xml:space="preserve">
<style type="text/css">
	.st0{fill:#C73130;}
	.st1{fill:#F3765F;}
	.st2{fill:#ECC39C;}
	.st3{fill:#746F71;}
	.st4{fill:#F2F1E9;}
</style>
<g id="XMLID_139_">
	<path id="XMLID_25_" class="st0" d="M237,373.7l-2.8-180.6"/>
</g>
<g id="XMLID_19_">
	<path id="XMLID_24_" class="st0" d="M28.2,518.5L203,473c32.2-8.4,51.5-41.3,43.1-73.4l-7.2-27.6l-291.3,75.8l7.2,27.6
		C-36.8,507.6-4,526.9,28.2,518.5z"/>
	
		<rect id="XMLID_23_" x="-17.3" y="316" transform="matrix(-0.9678 0.2519 -0.2519 -0.9678 301.7653 682.0521)" class="st1" width="249" height="88.8"/>
	
		<rect id="XMLID_22_" x="-4.2" y="225.5" transform="matrix(-0.9678 0.2519 -0.2519 -0.9678 269.2636 505.3413)" class="st2" width="213" height="88.8"/>
	
		<rect id="XMLID_21_" x="-89.5" y="147.7" transform="matrix(-0.9678 0.2519 -0.2519 -0.9678 144.7197 365.6032)" class="st3" width="277" height="88.8"/>
	<path id="XMLID_20_" class="st4" d="M-119.5,190l291.3-75.8l-7.2-27.6c-8.4-32.2-41.3-51.5-73.4-43.1L-83.6,89
		c-32.2,8.4-51.5,41.3-43.1,73.4L-119.5,190z"/>
</g>
</svg>
